# xmcd
#
# Track frame offsets:
# 150
# 7954
# 24426
# 41843
# 59125
# 80431
# 100117
# 117589
# 133252
# 152830
# 167169
# 184398
# 197872
# 214101
# 224930
# 239890
# 256660
# 273861
# 289118
# 308318
# 322118
#
# Disc length: 4414 seconds
#
#
# Revision: 0
# Processed by: cddbd v1.5.2PL0 Copyright (c) Steve Scherf et al.
# Submitted via: FreeRIP 2.951 
#
DISCID=45113c15
DTITLE=Akil Ammar - Deja Vu
DYEAR=1900
DGENRE=Ballad
TTITLE0=Akil Ammar -Dejavu
TTITLE1=Akil Ammar -Dejavu
TTITLE2=Akil Ammar -Dejavu
TTITLE3=Akil Ammar -Dejavu
TTITLE4=Akil Ammar -Dejavu
TTITLE5=Akil Ammar -Dejavu
TTITLE6=Akil Ammar -Dejavu
TTITLE7=Akil Ammar -Dejavu
TTITLE8=Akil Ammar -Dejavu
TTITLE9=Akil Ammar -Dejavu
TTITLE10=Akil Ammar -Dejavu
TTITLE11=Akil Ammar -Dejavu
TTITLE12=Akil Ammar -Dejavu
TTITLE13=Akil Ammar -Dejavu
TTITLE14=Akil Ammar -Dejavu
TTITLE15=Akil Ammar -Dejavu
TTITLE16=Akil Ammar -Dejavu
TTITLE17=Akil Ammar -Dejavu
TTITLE18=Akil Ammar -Dejavu
TTITLE19=Akil Ammar -Dejavu
TTITLE20=Akil Ammar -Dejavu
EXTD=
EXTT0=
EXTT1=
EXTT2=
EXTT3=
EXTT4=
EXTT5=
EXTT6=
EXTT7=
EXTT8=
EXTT9=
EXTT10=
EXTT11=
EXTT12=
EXTT13=
EXTT14=
EXTT15=
EXTT16=
EXTT17=
EXTT18=
EXTT19=
EXTT20=
PLAYORDER=
